<?xml version="1.0" standalone="no"?>
<!DOCTYPE svg PUBLIC "-//W3C//DTD SVG 20010904//EN"
 "http://www.w3.org/TR/2001/REC-SVG-20010904/DTD/svg10.dtd">
<svg version="1.0" xmlns="http://www.w3.org/2000/svg"
 width="1123.000000pt" height="1123.000000pt" viewBox="0 0 1123.000000 1123.000000"
 preserveAspectRatio="xMidYMid meet">
<metadata>
Created by potrace 1.14, written by Peter Selinger 2001-2017
</metadata>
<g transform="translate(0.000000,1123.000000) scale(0.100000,-0.100000)"
fill="#000000" stroke="none">
<path d="M5644 6615 l-480 -481 479 -479 479 -479 280 0 c154 -1 281 2 283 5
2 3 -210 219 -471 480 l-474 474 477 477 c372 372 473 478 455 479 -12 1 -140
2 -285 3 l-263 1 -480 -480z"/>
<path d="M6698 6616 l-479 -479 33 -35 c18 -19 234 -235 479 -480 l446 -446
285 -1 c158 0 286 1 285 2 -1 2 -217 218 -479 481 l-477 478 475 474 c260 260
472 476 469 479 -3 3 -130 5 -282 6 l-275 0 -480 -479z"/>
<path d="M5105 7034 c-21 -26 -48 -56 -59 -68 -12 -12 -48 -53 -81 -91 -33
-39 -64 -75 -70 -81 -18 -20 -131 -147 -255 -289 -67 -77 -135 -153 -149 -170
-31 -35 -164 -187 -201 -229 -14 -16 -36 -41 -50 -56 -14 -15 -50 -56 -80 -90
-30 -35 -62 -71 -70 -80 -8 -10 -40 -46 -70 -80 -30 -35 -59 -68 -65 -74 -27
-29 -176 -199 -225 -256 -30 -35 -62 -71 -70 -80 -8 -9 -48 -54 -89 -100 -41
-47 -78 -86 -83 -88 -4 -2 -8 -9 -8 -16 0 -10 61 -12 265 -12 l265 1 38 45
c106 123 240 278 263 305 15 17 59 68 99 115 40 47 85 99 99 115 15 17 54 62
86 100 32 39 65 77 74 86 9 8 35 38 58 65 39 46 53 62 106 124 12 14 62 73
112 130 79 93 128 148 160 184 6 6 77 90 159 186 82 96 154 180 160 185 6 6
36 39 66 75 30 36 69 81 87 100 17 19 41 47 53 63 l21 27 -254 0 -255 0 -37
-46z"/>
<path d="M3510 4901 c0 -155 1 -169 18 -167 13 2 18 15 20 61 l3 58 57 -56
c31 -30 64 -56 72 -57 41 -6 37 5 -24 61 l-66 62 52 48 c29 27 56 48 61 49 4
0 7 5 7 10 0 22 -43 8 -80 -26 -83 -77 -80 -78 -80 30 0 89 -1 96 -20 96 -19
0 -20 -7 -20 -169z"/>
<path d="M4850 5009 l0 -60 -22 15 c-34 24 -90 20 -116 -7 -60 -63 -45 -191
24 -217 39 -15 68 -12 92 10 16 15 22 17 22 6 0 -11 20 -26 36 -26 2 0 4 77 4
170 0 163 -1 170 -20 170 -18 0 -20 -7 -20 -61z m-19 -88 c33 -41 19 -128 -23
-149 -50 -24 -97 20 -92 86 1 12 2 29 3 37 2 26 39 55 67 53 14 -2 35 -13 45
-27z"/>
<path d="M5704 4903 c1 -92 4 -167 9 -166 25 5 29 13 32 58 1 28 3 51 4 52 0
1 28 -24 60 -54 51 -49 101 -75 101 -53 0 4 -28 33 -62 65 l-62 59 64 58 c59
53 62 58 39 58 -18 0 -44 -17 -80 -50 -30 -27 -56 -50 -59 -50 -3 0 -6 42 -5
93 0 85 -1 92 -21 95 -20 3 -20 -1 -20 -165z"/>
<path d="M6490 4907 c0 -90 3 -166 6 -170 3 -3 12 -3 20 0 11 4 14 38 14 169
0 157 -1 164 -20 164 -19 0 -20 -7 -20 -163z"/>
<path d="M5197 5028 c-21 -12 -35 -28 -33 -34 3 -7 -8 -14 -25 -18 -41 -8 -69
-57 -69 -123 0 -43 5 -58 28 -83 48 -53 132 -50 169 6 22 35 25 109 6 150 -9
17 -30 38 -47 46 l-31 15 33 17 c31 16 38 36 16 43 -5 1 -26 -7 -47 -19z m13
-88 c21 -11 41 -65 35 -95 -2 -11 -4 -25 -4 -31 -2 -25 -41 -53 -68 -48 -40 7
-63 39 -63 89 0 72 48 113 100 85z"/>
<path d="M6243 5039 c-6 -6 -22 -17 -35 -23 -12 -7 -22 -18 -20 -24 1 -7 -8
-12 -20 -12 -43 0 -68 -12 -68 -31 0 -16 4 -17 26 -9 40 16 82 12 104 -10 11
-11 20 -24 20 -29 0 -5 -27 -11 -60 -13 -75 -5 -104 -29 -103 -84 1 -45 18
-63 67 -71 29 -4 44 -1 67 16 28 21 29 21 29 2 0 -13 6 -18 18 -17 14 2 17 15
20 76 3 87 -11 135 -44 157 l-25 16 31 19 c17 10 30 24 28 30 -6 17 -22 20
-35 7z m7 -196 c0 -40 -28 -70 -76 -79 -35 -7 -67 53 -41 74 28 23 117 27 117
5z"/>
<path d="M7237 5028 c-22 -13 -35 -28 -33 -35 4 -9 -5 -13 -27 -14 -40 -1 -62
-10 -62 -26 0 -16 3 -16 38 -8 42 11 95 -2 102 -26 9 -26 8 -27 -45 -30 -79
-5 -110 -29 -110 -87 0 -33 8 -45 37 -61 30 -16 65 -14 92 5 19 14 25 14 31 4
5 -8 16 -15 24 -16 13 -2 16 10 17 64 2 117 -4 140 -44 173 -21 16 -21 17 11
33 21 11 29 21 26 31 -8 19 -12 19 -57 -7z m23 -188 c0 -53 -48 -88 -95 -70
-17 6 -25 17 -25 32 0 42 16 53 82 57 33 1 38 -1 38 -19z"/>
<path d="M3975 4983 c-57 -10 -65 -14 -65 -34 0 -16 4 -18 18 -10 25 13 102 7
113 -10 17 -27 10 -39 -23 -39 -59 0 -108 -19 -118 -46 -17 -43 -11 -71 18
-94 32 -26 91 -23 123 6 16 14 19 15 14 2 -7 -18 21 -33 31 -16 7 10 8 63 4
158 -1 51 -60 92 -115 83z m75 -143 c0 -71 -100 -107 -117 -42 -8 34 21 57 76
60 36 3 41 0 41 -18z"/>
<path d="M4375 4970 c-28 -14 -35 -15 -39 -4 -6 15 -35 20 -37 7 -4 -33 -3
-215 1 -225 3 -7 12 -14 21 -14 14 -1 16 12 16 89 0 82 2 92 23 109 12 10 33
18 46 18 37 0 51 -32 53 -122 2 -91 5 -100 27 -91 23 8 18 171 -6 211 -23 37
-60 45 -105 22z"/>
<path d="M6763 4982 c-12 -2 -27 -10 -33 -18 -14 -16 -35 -19 -25 -4 3 6 -1
13 -10 17 -27 10 -33 -14 -32 -130 2 -97 4 -110 20 -113 10 -1 17 4 18 14 0
10 1 50 2 90 2 64 5 76 26 93 29 24 53 24 74 1 13 -14 17 -39 17 -109 0 -81 2
-91 18 -89 14 2 18 17 22 94 3 50 10 96 17 103 19 18 69 20 84 3 8 -10 13 -47
14 -97 1 -87 7 -109 29 -101 16 6 14 180 -3 211 -16 31 -61 44 -98 28 -17 -7
-34 -18 -38 -25 -5 -8 -13 -6 -29 8 -25 23 -44 29 -73 24z"/>
<path d="M7509 4978 c-1 -2 -2 -56 -3 -120 -2 -88 1 -118 10 -122 21 -8 28 14
30 98 1 69 4 82 24 98 27 21 49 23 75 4 15 -11 19 -30 22 -107 3 -52 6 -95 7
-97 2 -1 10 0 18 3 13 5 15 23 13 93 -3 114 -2 109 -25 132 -24 24 -91 27
-110 5 -13 -15 -35 -11 -25 6 4 5 -3 9 -14 9 -12 0 -21 -1 -22 -2z"/>
<path d="M3500 4556 c0 -8 4 -17 9 -20 10 -7 23 19 14 28 -11 11 -23 6 -23 -8z"/>
<path d="M3803 4564 c-7 -3 -13 -12 -13 -19 0 -8 -7 -21 -17 -30 -13 -13 -13
-19 -3 -25 7 -5 13 -31 14 -69 1 -84 20 -83 24 2 3 59 5 67 22 67 11 0 20 5
20 11 0 5 -4 8 -8 5 -15 -9 -35 12 -28 29 4 11 13 15 27 12 13 -3 19 -1 16 6
-4 13 -35 19 -54 11z"/>
<path d="M5050 4550 c0 -12 5 -17 13 -14 8 3 14 11 14 19 0 8 -6 15 -14 15 -7
0 -13 -9 -13 -20z"/>
<path d="M5119 4533 c-2 -92 1 -164 6 -173 12 -19 25 1 20 31 -3 16 -2 29 1
29 4 0 24 -16 45 -35 38 -34 68 -47 53 -23 -4 6 -23 25 -42 42 l-34 30 43 39
c37 32 40 37 19 31 -14 -3 -37 -18 -52 -32 -31 -28 -30 -29 -32 42 -1 61 -26
78 -27 19z"/>
<path d="M5545 4560 c-8 -13 4 -32 16 -25 12 8 12 35 0 35 -6 0 -13 -4 -16
-10z"/>
<path d="M6475 4463 c0 -76 4 -108 13 -111 9 -3 12 13 12 55 0 63 11 83 47 83
17 0 23 -7 29 -35 3 -19 4 -41 1 -47 -6 -17 11 -61 21 -54 12 7 5 125 -9 142
-14 17 -61 18 -77 2 -9 -9 -12 -3 -12 30 0 28 -4 42 -13 42 -10 0 -13 -26 -12
-107z"/>
<path d="M6980 4556 c0 -8 4 -17 9 -20 10 -7 23 19 14 28 -11 11 -23 6 -23 -8z"/>
<path d="M7090 4460 c0 -67 4 -110 10 -110 10 0 12 8 13 48 0 30 5 28 48 -14
52 -50 68 -39 19 13 l-41 41 36 27 c34 26 45 45 26 45 -4 0 -24 -13 -42 -30
-19 -16 -37 -30 -41 -30 -4 0 -6 27 -5 60 2 43 -1 60 -10 60 -10 0 -13 -27
-13 -110z"/>
<path d="M5727 4553 c-4 -3 -7 -14 -7 -24 0 -9 -6 -20 -12 -23 -10 -5 -10 -7
0 -12 7 -4 12 -27 12 -65 0 -53 3 -61 23 -68 26 -10 52 -8 52 4 0 4 -8 9 -18
11 -28 4 -30 9 -32 64 -1 46 0 50 21 50 33 0 39 18 8 22 -17 2 -28 10 -30 21
-3 23 -9 29 -17 20z"/>
<path d="M4839 4543 c-1 -5 -1 -12 0 -17 1 -5 -4 -13 -11 -18 -8 -5 -9 -11 -3
-15 6 -5 11 -32 12 -62 2 -61 7 -68 46 -75 18 -3 27 0 27 9 0 7 -10 15 -22 17
-20 3 -23 9 -25 56 -2 52 -1 52 28 52 18 0 28 4 24 10 -3 6 -18 10 -32 10 -20
0 -24 4 -20 20 3 13 0 20 -9 20 -8 0 -15 -3 -15 -7z"/>
<path d="M3499 4503 c-9 -84 -1 -153 19 -153 6 0 7 70 3 148 -1 13 -20 17 -22
5z"/>
<path d="M3567 4503 c-9 -19 0 -147 11 -151 8 -2 12 13 12 53 0 66 17 90 55
81 23 -6 25 -11 25 -72 0 -48 3 -65 13 -61 16 5 15 121 -3 142 -15 18 -61 20
-78 3 -9 -9 -12 -9 -12 0 0 13 -17 16 -23 5z"/>
<path d="M3965 4490 c-27 -30 -24 -99 5 -122 48 -39 107 -10 114 56 4 31 0 43
-19 62 -30 30 -75 31 -100 4z m69 -6 c25 -10 32 -71 11 -94 -22 -24 -38 -25
-59 -4 -29 28 -11 104 24 104 5 0 15 -3 24 -6z"/>
<path d="M4168 4503 c-3 -7 -2 -102 1 -140 1 -7 6 -13 11 -13 6 0 10 23 10 51
0 63 13 89 45 89 14 0 25 5 25 10 0 14 -43 13 -58 -2 -9 -9 -12 -9 -12 0 0 13
-17 17 -22 5z"/>
<path d="M4379 4491 c-4 -96 -2 -124 9 -133 14 -12 13 -13 16 60 1 51 13 71
43 72 19 0 28 -21 29 -70 2 -69 3 -72 15 -68 6 2 12 30 13 62 2 37 7 61 17 67
38 24 58 -3 56 -74 -1 -48 9 -70 22 -49 10 17 4 107 -9 132 -10 18 -17 21 -43
16 -35 -7 -37 -7 -114 -3 -43 3 -53 1 -54 -12z"/>
<path d="M4630 4495 c0 -11 8 -13 30 -9 18 4 36 1 45 -6 24 -20 18 -30 -18
-30 -18 0 -42 -7 -54 -15 -48 -33 17 -108 67 -77 12 7 21 8 25 2 14 -23 23 4
20 62 -3 71 -17 88 -77 88 -27 0 -38 -4 -38 -15z m90 -79 c0 -18 -27 -46 -43
-46 -30 1 -47 37 -25 51 22 14 68 10 68 -5z"/>
<path d="M5050 4433 c0 -57 4 -80 13 -80 17 0 17 149 -1 155 -9 3 -12 -17 -12
-75z"/>
<path d="M5343 4503 c-28 -11 -11 -21 26 -16 33 5 41 2 50 -16 11 -20 9 -21
-27 -21 -49 0 -76 -26 -66 -64 7 -31 47 -45 77 -27 16 10 21 10 28 0 14 -23
21 -2 20 57 0 68 -19 94 -65 93 -17 0 -37 -3 -43 -6z m87 -82 c0 -5 -8 -19
-18 -31 -13 -17 -24 -21 -40 -16 -24 8 -30 41 -9 49 21 9 67 7 67 -2z"/>
<path d="M5544 4433 c1 -45 5 -78 11 -78 6 0 11 34 13 78 2 59 0 77 -11 77
-10 0 -13 -19 -13 -77z"/>
<path d="M5981 4484 c-56 -71 6 -152 97 -128 36 10 25 26 -13 18 -27 -5 -41
-2 -55 11 -34 31 -24 41 38 41 55 -1 57 0 54 24 -9 62 -83 83 -121 34z m89
-13 c14 -27 14 -27 -30 -26 -46 1 -57 9 -40 30 18 21 57 19 70 -4z"/>
<path d="M6243 4495 c-47 -33 -35 -120 20 -138 32 -10 81 -1 72 13 -4 6 -17 7
-31 4 -51 -13 -86 62 -47 101 11 11 26 15 45 11 21 -4 28 -2 28 9 0 20 -59 20
-87 0z"/>
<path d="M6726 4433 c0 -90 17 -105 24 -23 6 63 14 80 39 80 30 0 41 -22 41
-83 0 -42 3 -58 13 -54 16 5 15 121 -3 142 -15 18 -61 20 -78 3 -9 -9 -12 -9
-12 0 0 7 -6 12 -13 12 -9 0 -12 -22 -11 -77z"/>
<path d="M6979 4458 c-2 -93 4 -125 19 -101 4 7 7 40 6 75 -2 79 -2 78 -14 78
-5 0 -10 -24 -11 -52z"/>
<path d="M7339 4493 c-2 -35 2 -98 7 -115 7 -23 52 -34 75 -20 12 8 20 8 24 2
15 -24 25 7 25 76 0 56 -3 75 -12 71 -7 -2 -14 -21 -14 -43 -2 -70 -4 -74 -29
-86 -36 -16 -48 0 -50 68 -1 35 -6 59 -13 62 -7 2 -12 -5 -13 -15z"/>
<path d="M7595 4498 c-8 -24 0 -143 10 -143 6 0 11 24 12 53 2 58 15 82 45 82
23 0 27 -11 31 -80 3 -69 21 -68 24 1 3 69 25 93 62 70 10 -6 14 -26 12 -65
-1 -44 2 -56 14 -56 19 0 21 83 2 120 -15 29 -58 38 -76 16 -11 -14 -15 -14
-28 -1 -17 18 -55 19 -71 3 -9 -9 -12 -9 -12 0 0 16 -19 15 -25 0z"/>
</g>
</svg>
